<?xml version="1.0" encoding="UTF-8" ?>
<!DOCTYPE svg PUBLIC "-//W3C//DTD SVG 1.1//EN" "http://www.w3.org/Graphics/SVG/1.1/DTD/svg11.dtd">
<svg width="200pt" height="200pt" viewBox="0 0 200 200" version="1.1" xmlns="http://www.w3.org/2000/svg">
<path fill="#ffffff" d=" M 0.00 0.00 L 93.57 0.00 C 70.81 1.85 48.47 11.01 31.90 26.89 C 26.10 32.30 20.92 38.35 16.53 44.96 C 6.57 59.58 1.32 77.04 0.00 94.60 L 0.00 0.00 Z" />
<path fill="#121212" d=" M 93.57 0.00 L 96.78 0.00 C 100.33 1.02 103.72 3.49 104.64 7.24 C 106.14 12.06 103.33 17.69 98.56 19.35 C 95.81 20.19 92.92 20.31 90.09 20.67 C 67.75 23.27 46.78 35.95 34.16 54.57 C 26.99 54.81 21.85 48.90 16.53 44.96 C 20.92 38.35 26.10 32.30 31.90 26.89 C 48.47 11.01 70.81 1.85 93.57 0.00 Z" />
<path fill="#ffffff" d=" M 96.78 0.00 L 200.00 0.00 L 200.00 88.67 C 199.25 85.88 198.45 83.10 197.87 80.26 C 197.62 75.48 196.56 70.78 194.61 66.40 C 191.46 58.83 188.24 50.75 181.90 45.25 C 176.89 47.86 171.45 50.56 168.02 55.17 C 168.55 58.73 170.40 61.89 171.83 65.15 C 175.17 72.17 176.48 79.90 178.87 87.25 C 179.25 90.41 179.66 93.57 179.92 96.75 C 180.36 104.11 179.36 111.47 177.76 118.64 C 175.93 126.39 172.81 133.79 168.84 140.68 C 166.16 144.92 163.32 149.08 160.11 152.94 C 156.54 156.70 152.78 160.29 148.74 163.55 C 145.64 165.79 142.43 167.90 139.09 169.79 C 134.91 172.08 130.55 174.04 126.05 175.62 C 120.18 177.59 114.11 178.96 107.95 179.56 C 101.97 180.11 95.94 180.06 89.96 179.58 C 82.10 178.36 74.44 176.03 67.09 173.02 C 56.44 168.22 47.10 160.87 39.29 152.23 C 29.28 140.66 22.98 126.10 20.72 111.01 C 17.93 91.37 22.90 70.88 34.16 54.57 C 46.78 35.95 67.75 23.27 90.09 20.67 C 92.92 20.31 95.81 20.19 98.56 19.35 C 103.33 17.69 106.14 12.06 104.64 7.24 C 103.72 3.49 100.33 1.02 96.78 0.00 Z" />
<path fill="#373737" d=" M 0.00 94.60 C 1.32 77.04 6.57 59.58 16.53 44.96 C 21.85 48.90 26.99 54.81 34.16 54.57 C 22.90 70.88 17.93 91.37 20.72 111.01 C 14.48 113.56 7.69 114.16 1.02 114.30 C 0.64 111.32 0.33 108.35 0.00 105.37 L 0.00 94.60 Z" />
<path fill="#f5f5f5" d=" M 168.02 55.17 C 171.45 50.56 176.89 47.86 181.90 45.25 C 188.24 50.75 191.46 58.83 194.61 66.40 C 196.56 70.78 197.62 75.48 197.87 80.26 C 196.80 77.10 195.32 74.10 193.61 71.24 C 188.40 71.79 183.36 73.41 178.67 75.71 C 178.35 79.55 178.54 83.41 178.87 87.25 C 176.48 79.90 175.17 72.17 171.83 65.15 C 170.40 61.89 168.55 58.73 168.02 55.17 Z" />
<path fill="#ececec" d=" M 178.67 75.71 C 183.36 73.41 188.40 71.79 193.61 71.24 C 195.32 74.10 196.80 77.10 197.87 80.26 C 198.45 83.10 199.25 85.88 200.00 88.67 L 200.00 97.57 C 193.61 94.90 186.57 95.77 179.92 96.75 C 179.66 93.57 179.25 90.41 178.87 87.25 C 178.54 83.41 178.35 79.55 178.67 75.71 Z" />
<path fill="#e3e3e3" d=" M 179.92 96.75 C 186.57 95.77 193.61 94.90 200.00 97.57 L 200.00 110.38 C 199.29 114.35 198.32 118.27 197.42 122.21 C 191.92 118.22 184.27 115.59 177.76 118.64 C 179.36 111.47 180.36 104.11 179.92 96.75 Z" />
<path fill="#ffffff" d=" M 0.00 105.37 C 0.33 108.35 0.64 111.32 1.02 114.30 C 3.50 132.25 11.23 149.36 22.69 163.37 C 31.91 174.94 44.01 184.01 57.30 190.42 C 67.52 195.26 78.60 198.54 89.92 199.22 L 90.20 200.00 L 0.00 200.00 L 0.00 105.37 Z" />
<path fill="#585858" d=" M 20.72 111.01 C 22.98 126.10 29.28 140.66 39.29 152.23 C 35.79 157.13 31.40 161.46 26.16 164.48 C 25.01 164.09 23.85 163.73 22.69 163.37 C 11.23 149.36 3.50 132.25 1.02 114.30 C 7.69 114.16 14.48 113.56 20.72 111.01 Z" />
<path fill="#ffffff" d=" M 197.42 122.21 C 198.32 118.27 199.29 114.35 200.00 110.38 L 200.00 200.00 L 103.40 200.00 C 106.72 199.84 110.03 199.47 113.33 199.08 C 120.50 198.19 127.56 196.41 134.37 193.99 C 140.71 191.62 146.78 188.57 152.55 185.06 C 158.21 181.66 163.44 177.59 168.19 173.01 C 171.88 169.59 175.32 165.90 178.47 161.97 C 182.18 157.29 185.45 152.27 188.33 147.03 C 192.65 139.29 195.47 130.83 197.42 122.21 Z" />
<path fill="#d8d8d8" d=" M 177.76 118.64 C 184.27 115.59 191.92 118.22 197.42 122.21 C 195.47 130.83 192.65 139.29 188.33 147.03 C 187.84 144.97 188.22 142.02 185.73 141.21 C 180.38 138.98 174.39 139.71 168.84 140.68 C 172.81 133.79 175.93 126.39 177.76 118.64 Z" />
<path fill="#cdcdcd" d=" M 168.84 140.68 C 174.39 139.71 180.38 138.98 185.73 141.21 C 188.22 142.02 187.84 144.97 188.33 147.03 C 185.45 152.27 182.18 157.29 178.47 161.97 C 177.68 159.80 177.36 157.11 175.23 155.77 C 170.86 152.65 165.22 152.83 160.11 152.94 C 163.32 149.08 166.16 144.92 168.84 140.68 Z" />
<path fill="#747474" d=" M 39.29 152.23 C 47.10 160.87 56.44 168.22 67.09 173.02 C 65.15 177.46 63.52 182.05 61.34 186.38 C 60.54 188.19 58.84 189.29 57.30 190.42 C 44.01 184.01 31.91 174.94 22.69 163.37 C 23.85 163.73 25.01 164.09 26.16 164.48 C 31.40 161.46 35.79 157.13 39.29 152.23 Z" />
<path fill="#c4c4c4" d=" M 160.11 152.94 C 165.22 152.83 170.86 152.65 175.23 155.77 C 177.36 157.11 177.68 159.80 178.47 161.97 C 175.32 165.90 171.88 169.59 168.19 173.01 C 165.81 170.36 163.62 167.35 160.41 165.65 C 156.76 164.00 152.66 163.95 148.74 163.55 C 152.78 160.29 156.54 156.70 160.11 152.94 Z" />
<path fill="#bbbbbb" d=" M 139.09 169.79 C 142.43 167.90 145.64 165.79 148.74 163.55 C 152.66 163.95 156.76 164.00 160.41 165.65 C 163.62 167.35 165.81 170.36 168.19 173.01 C 163.44 177.59 158.21 181.66 152.55 185.06 C 152.11 180.29 148.00 177.15 145.67 173.26 C 144.34 170.86 141.50 170.45 139.09 169.79 Z" />
<path fill="#b1b1b1" d=" M 126.05 175.62 C 130.55 174.04 134.91 172.08 139.09 169.79 C 141.50 170.45 144.34 170.86 145.67 173.26 C 148.00 177.15 152.11 180.29 152.55 185.06 C 146.78 188.57 140.71 191.62 134.37 193.99 C 134.45 192.05 135.10 189.88 133.89 188.15 C 131.37 183.92 128.94 179.62 126.05 175.62 Z" />
<path fill="#898989" d=" M 67.09 173.02 C 74.44 176.03 82.10 178.36 89.96 179.58 C 89.29 186.13 90.89 192.68 89.92 199.22 C 78.60 198.54 67.52 195.26 57.30 190.42 C 58.84 189.29 60.54 188.19 61.34 186.38 C 63.52 182.05 65.15 177.46 67.09 173.02 Z" />
<path fill="#a6a6a6" d=" M 107.95 179.56 C 114.11 178.96 120.18 177.59 126.05 175.62 C 128.94 179.62 131.37 183.92 133.89 188.15 C 135.10 189.88 134.45 192.05 134.37 193.99 C 127.56 196.41 120.50 198.19 113.33 199.08 C 112.85 193.19 112.22 187.26 110.57 181.57 C 109.69 180.90 108.82 180.23 107.95 179.56 Z" />
<path fill="#999999" d=" M 89.96 179.58 C 95.94 180.06 101.97 180.11 107.95 179.56 C 108.82 180.23 109.69 180.90 110.57 181.57 C 112.22 187.26 112.85 193.19 113.33 199.08 C 110.03 199.47 106.72 199.84 103.40 200.00 L 90.20 200.00 L 89.92 199.22 C 90.89 192.68 89.29 186.13 89.96 179.58 Z" />
</svg>
